<?xml version="1.0" encoding="UTF-8"?>
<svg version="1.1" xmlns="http://www.w3.org/2000/svg" width="256" height="256">
<path d="M0 0 C2.45956246 0.01068952 4.91838982 0.00007386 7.37792969 -0.01269531 C29.47387843 -0.03833578 29.47387843 -0.03833578 35.37915039 3.70922852 C38.06770265 7.70326685 37.68773715 11.60770135 37.66308594 16.31933594 C37.66928452 17.3006398 37.67548309 18.28194366 37.68186951 19.29298401 C37.68896778 21.36661792 37.68579355 23.44030883 37.6730957 25.51391602 C37.65924259 28.68384963 37.69328601 31.85082412 37.73144531 35.02050781 C37.73239665 37.03678458 37.73053692 39.05306503 37.72558594 41.06933594 C37.73884415 42.01530136 37.75210236 42.96126678 37.76576233 43.93589783 C37.70301286 48.38006768 37.5357134 50.62574257 34.95532227 54.35791016 C31.58433277 56.60178172 29.75306397 56.88658006 25.72949219 56.89746094 C24.51390625 56.91744141 23.29832031 56.93742187 22.04589844 56.95800781 C20.78390625 56.95478516 19.52191406 56.9515625 18.22167969 56.94824219 C7.43675699 56.7328023 7.43675699 56.7328023 -2.90332031 59.26074219 C-4.32599894 62.10609943 -4.123039 64.62292771 -4.21972656 67.79980469 C-4.26162109 69.10175781 -4.30351562 70.40371094 -4.34667969 71.74511719 C-4.38649331 73.12532264 -4.42620554 74.50553102 -4.46582031 75.88574219 C-4.50901438 77.27377633 -4.55262896 78.66179746 -4.59667969 80.04980469 C-4.70304031 83.45334475 -4.80506746 86.85695997 -4.90332031 90.26074219 C-3.3897998 90.22932129 -3.3897998 90.22932129 -1.84570312 90.19726562 C1.90382655 90.12477434 5.65329451 90.07890998 9.40332031 90.04101562 C11.02517112 90.02092075 12.64694966 89.99363964 14.26855469 89.95898438 C16.60206949 89.91036948 18.93462526 89.8877533 21.26855469 89.87011719 C21.99161804 89.84947205 22.7146814 89.8288269 23.45965576 89.80755615 C26.79101996 89.8060769 28.7768631 90.04440777 31.56323242 91.92919922 C36.4300441 99.32898452 32.62002943 113.36144307 31.55249023 121.95605469 C31.28210709 124.15257948 31.0316248 126.35080948 30.78222656 128.54980469 C30.61088782 129.97182325 30.43840292 131.39370428 30.26464844 132.81542969 C30.11278076 134.0785498 29.96091309 135.34166992 29.80444336 136.64306641 C29.01857157 140.65998539 27.95638565 143.62119666 26.09667969 147.26074219 C22.50999656 149.65186427 20.932714 149.49455245 16.67871094 149.45605469 C15.42509766 149.44960937 14.17148438 149.44316406 12.87988281 149.43652344 C10.91438477 149.41138672 10.91438477 149.41138672 8.90917969 149.38574219 C7.57389982 149.37570857 6.23861279 149.36658339 4.90332031 149.35839844 C1.63425954 149.33479511 -1.63444059 149.30186813 -4.90332031 149.26074219 C-4.89332756 151.14209114 -4.89332756 151.14209114 -4.88313293 153.06144714 C-4.82233832 164.8769269 -4.77735552 176.69237495 -4.7478838 188.50797558 C-4.73222278 194.58261314 -4.71097626 200.65712452 -4.67700195 206.73168945 C-4.64442449 212.59313003 -4.62647058 218.45444916 -4.61868858 224.31597328 C-4.61314221 226.55310287 -4.60231163 228.79022576 -4.58613014 231.0273037 C-4.56437768 234.15889261 -4.56135252 237.28997864 -4.56274414 240.42163086 C-4.55195831 241.34807907 -4.54117249 242.27452728 -4.53005981 243.22904968 C-4.55324592 248.04564481 -4.70674245 251.37880752 -7.90332031 255.26074219 C-10.33600038 256.47708222 -11.93756355 256.40703755 -14.65673828 256.43774414 C-15.64471405 256.45057938 -16.63268982 256.46341461 -17.65060425 256.47663879 C-18.72142242 256.48402573 -19.7922406 256.49141266 -20.89550781 256.49902344 C-21.99299347 256.50709518 -23.09047913 256.51516693 -24.22122192 256.52348328 C-26.54639095 256.53733008 -28.87158036 256.54804956 -31.19677734 256.5559082 C-34.75690041 256.57313852 -38.31609926 256.61702247 -41.87597656 256.66113281 C-44.13248014 256.67125791 -46.38899162 256.67977458 -48.64550781 256.68652344 C-49.71227753 256.70403152 -50.77904724 256.72153961 -51.87814331 256.73957825 C-59.26847529 256.71783295 -59.26847529 256.71783295 -62.54443359 254.35913086 C-64.48503313 251.36246305 -65.02795917 249.71966003 -65.02357483 246.18588257 C-65.02494949 245.33330368 -65.02632416 244.48072479 -65.02774048 243.60231018 C-65.02234756 242.19645912 -65.02234756 242.19645912 -65.0168457 240.76220703 C-65.01699173 239.77680435 -65.01713776 238.79140167 -65.01728821 237.77613831 C-65.01658965 234.5079633 -65.00879986 231.23984478 -65.00097656 227.97167969 C-64.99911218 225.7100935 -64.99768837 223.4485069 -64.99668884 221.18692017 C-64.99286524 215.22581879 -64.98303628 209.26474167 -64.97198486 203.3036499 C-64.96176738 197.2242465 -64.9571905 191.14483919 -64.95214844 185.06542969 C-64.94141389 173.13052318 -64.92433933 161.1956347 -64.90332031 149.26074219 C-65.79116211 149.28168945 -66.67900391 149.30263672 -67.59375 149.32421875 C-70.89626486 149.39249896 -74.19802701 149.44259089 -77.50097656 149.48046875 C-78.92883152 149.50055201 -80.35660456 149.52782471 -81.78417969 149.5625 C-83.83972399 149.61116888 -85.89417887 149.63374186 -87.95019531 149.65136719 C-89.18608398 149.67231445 -90.42197266 149.69326172 -91.6953125 149.71484375 C-95.50260158 149.17591242 -96.62092383 148.29344057 -98.90332031 145.26074219 C-99.84058774 142.44893991 -100.03945108 140.68952044 -100.06445312 137.77685547 C-100.07406067 136.87226593 -100.08366821 135.96767639 -100.09356689 135.03567505 C-100.09781677 134.06065033 -100.10206665 133.08562561 -100.10644531 132.08105469 C-100.11214539 131.07613983 -100.11784546 130.07122498 -100.12371826 129.03585815 C-100.13316608 126.90917005 -100.13970138 124.78246732 -100.14355469 122.65576172 C-100.15326179 119.40533886 -100.18428817 116.15554792 -100.21582031 112.90527344 C-100.22235037 110.83887094 -100.22760083 108.77246392 -100.23144531 106.70605469 C-100.24379211 105.73507843 -100.25613892 104.76410217 -100.26885986 103.76370239 C-100.25255001 98.81333474 -100.23657663 95.2279867 -96.90332031 91.26074219 C-93.98134342 89.79975374 -91.40438556 90.14939317 -88.14550781 90.16308594 C-87.15093063 90.16520836 -87.15093063 90.16520836 -86.13626099 90.16737366 C-84.01690168 90.17297465 -81.89764773 90.18552718 -79.77832031 90.19824219 C-78.34212392 90.20325707 -76.90592587 90.20781999 -75.46972656 90.21191406 C-71.94755686 90.22294436 -68.42544887 90.2402096 -64.90332031 90.26074219 C-64.91903076 89.41592285 -64.93474121 88.57110352 -64.95092773 87.70068359 C-65.78954344 35.69235627 -65.78954344 35.69235627 -48.90332031 17.26074219 C-48.42894531 16.66132813 -47.95457031 16.06191406 -47.46582031 15.44433594 C-43.70154702 11.06248656 -39.16446004 8.54725201 -34.09082031 5.94824219 C-33.43927979 5.61042725 -32.78773926 5.2726123 -32.11645508 4.92456055 C-21.77401923 -0.10720451 -11.26217163 -0.05816775 0 0 Z M-38.71582031 31.51074219 C-46.35704405 42.07048888 -48.18225528 54.18798939 -48.21191406 66.94042969 C-48.23703984 68.94043303 -48.26243827 70.94043297 -48.28808594 72.94042969 C-48.31695514 76.05435534 -48.34101437 79.16822236 -48.35961914 82.28222656 C-48.38121654 85.31440584 -48.42060616 88.34596438 -48.46191406 91.37792969 C-48.46202988 92.31023407 -48.46214569 93.24253845 -48.46226501 94.20309448 C-48.5167557 97.75044001 -48.6049154 100.55157749 -49.98876953 103.84033203 C-52.91559305 106.01174994 -55.36979754 105.81121529 -58.97753906 105.87011719 C-59.66137161 105.88665344 -60.34520416 105.9031897 -61.04975891 105.92022705 C-63.23020367 105.96874539 -65.40995101 105.9900841 -67.59082031 106.01074219 C-69.07067318 106.03889904 -70.55049351 106.06882609 -72.03027344 106.10058594 C-75.65494416 106.17783635 -79.27740609 106.21830902 -82.90332031 106.26074219 C-82.90332031 114.84074219 -82.90332031 123.42074219 -82.90332031 132.26074219 C-80.94007812 132.298125 -78.97683594 132.33550781 -76.95410156 132.37402344 C-74.37465534 132.43968207 -71.79522911 132.50612944 -69.21582031 132.57324219 C-67.92224609 132.59580078 -66.62867187 132.61835938 -65.29589844 132.64160156 C-63.42514648 132.69477539 -63.42514648 132.69477539 -61.51660156 132.74902344 C-60.36973877 132.77520752 -59.22287598 132.8013916 -58.04125977 132.82836914 C-54.31376214 133.34197673 -51.58671072 134.57735178 -48.90332031 137.26074219 C-48.79599598 138.60099761 -48.75653751 139.94677797 -48.74510193 141.29127502 C-48.73531311 142.15930756 -48.72552429 143.02734009 -48.71543884 143.92167664 C-48.70680565 145.36097282 -48.70680565 145.36097282 -48.69799805 146.8293457 C-48.68809845 147.8341095 -48.67819885 148.83887329 -48.66799927 149.87408447 C-48.63627947 153.2125814 -48.61158558 156.55109258 -48.58691406 159.88964844 C-48.56635357 162.19750855 -48.54535736 164.50536483 -48.52394104 166.81321716 C-48.46862685 172.90087786 -48.41925893 178.98857305 -48.37109375 185.07629395 C-48.3209468 191.28299039 -48.26522529 197.48963645 -48.20996094 203.69628906 C-48.10226509 215.88439875 -48.00136049 228.072551 -47.90332031 240.26074219 C-39.32332031 240.26074219 -30.74332031 240.26074219 -21.90332031 240.26074219 C-21.88873779 237.15627686 -21.87415527 234.05181152 -21.85913086 230.85327148 C-21.80885806 220.6112737 -21.74227614 210.36942913 -21.6676054 200.1275816 C-21.62282345 193.91620358 -21.58358461 187.70489235 -21.55688477 181.4934082 C-21.53092987 175.50217439 -21.49058304 169.51119652 -21.44013405 163.52012062 C-21.42341236 161.2311502 -21.41193123 158.94213545 -21.40570641 156.65311241 C-21.39612296 153.45393229 -21.36813263 150.25541485 -21.33569336 147.05639648 C-21.33712845 146.10405624 -21.33856354 145.151716 -21.34004211 144.17051697 C-21.32750397 143.29973511 -21.31496582 142.42895325 -21.30204773 141.53178406 C-21.29513428 140.396596 -21.29513428 140.396596 -21.28808117 139.23847485 C-20.79387189 136.69815971 -19.92472718 135.83591714 -17.90332031 134.26074219 C-14.66466397 133.18119007 -12.11176194 133.05632478 -8.70410156 132.94433594 C-7.49560547 132.90244141 -6.28710938 132.86054688 -5.04199219 132.81738281 C-3.77935547 132.77806641 -2.51671875 132.73875 -1.21582031 132.69824219 C0.05841797 132.65505859 1.33265625 132.611875 2.64550781 132.56738281 C5.7957882 132.46119359 8.94614808 132.35914686 12.09667969 132.26074219 C14.03851926 123.6670692 15.07742816 115.00028187 16.09667969 106.26074219 C15.0824292 106.25139648 14.06817871 106.24205078 13.02319336 106.23242188 C9.26005127 106.19254857 5.49772909 106.12679877 1.73510742 106.05322266 C0.10663384 106.02499729 -1.52197715 106.00379047 -3.15063477 105.98974609 C-5.49209003 105.96833687 -7.83189076 105.92170255 -10.17285156 105.87011719 C-10.9010762 105.86888855 -11.62930084 105.86765991 -12.3795929 105.86639404 C-15.39489384 105.77901794 -17.42446562 105.62479355 -19.86157227 103.77197266 C-21.40444086 100.05274454 -21.33098547 96.43243937 -21.30175781 92.47167969 C-21.30462799 91.61321442 -21.30749817 90.75474915 -21.31045532 89.87026978 C-21.31249519 88.05299216 -21.30697069 86.23569255 -21.29443359 84.41845703 C-21.2784964 81.66615235 -21.29422311 78.91534263 -21.31347656 76.16308594 C-21.33626853 56.90058569 -21.33626853 56.90058569 -16.15332031 48.38574219 C-7.57998193 40.28870038 2.63541272 39.99904652 13.8269043 40.24609375 C15.58312483 40.28253601 17.34014342 40.27553852 19.09667969 40.26074219 C20.3358918 39.24437242 20.3358918 39.24437242 20.21020508 37.12768555 C20.20496826 36.21124268 20.19973145 35.2947998 20.19433594 34.35058594 C20.19111328 33.36123047 20.18789062 32.371875 20.18457031 31.35253906 C20.17619141 30.31162109 20.1678125 29.27070313 20.15917969 28.19824219 C20.15466797 27.15345703 20.15015625 26.10867187 20.14550781 25.03222656 C20.13367881 22.44167559 20.11719658 19.8512366 20.09667969 17.26074219 C15.31361782 17.16081482 10.53118212 17.08878265 5.74731445 17.04101562 C4.12481075 17.02107406 2.50237727 16.99391045 0.88012695 16.95898438 C-14.576495 16.63488623 -28.26631394 18.93140012 -38.71582031 31.51074219 Z " fill="#FFFFFF" transform="translate(163.9033203125,-0.2607421875)"/>
</svg>
