<?xml version="1.0" encoding="UTF-8"?>
<svg version="1.1" xmlns="http://www.w3.org/2000/svg" width="256" height="256">
<path d="M0 0 C0.85118408 0.85440674 1.70236816 1.70881348 2.5793457 2.58911133 C6.55923871 5.90261195 10.38715455 5.64643586 15.37890625 5.53125 C16.26859604 5.53451294 17.15828583 5.53777588 18.07493591 5.5411377 C20.90474091 5.55094525 23.73284724 5.52939273 26.5625 5.5 C30.29359809 5.46131606 34.0226733 5.45505096 37.75390625 5.46875 C38.60610245 5.44913208 39.45829865 5.42951416 40.33631897 5.40930176 C44.67718639 5.42829194 46.45923972 5.58827535 50.01928711 8.29882812 C52.10952315 11.1493608 53.01525682 13.22942225 52.83203125 16.8125 C51.2760663 20.90329986 47.73340963 23.26812571 44.3828125 25.921875 C41.3406992 28.46032641 41.3406992 28.46032641 40 32 C41.10424502 34.31220366 42.22818646 36.2526914 43.625 38.375 C52.43635151 52.94936971 54.88241305 69.89843943 51.08203125 86.6171875 C47.66426295 99.22320903 41.08488131 108.75928882 32 118 C31.36191406 118.65097656 30.72382813 119.30195313 30.06640625 119.97265625 C18.81642795 130.61452762 3.19464691 135.05309862 -12 135.5 C-29.21846202 134.99357465 -44.67512397 129.26262919 -57 117 C-57.88751953 118.08667969 -57.88751953 118.08667969 -58.79296875 119.1953125 C-60.42051835 121.18660483 -62.05353963 123.17343488 -63.69140625 125.15625 C-64.98656675 126.75164229 -66.26287507 128.3645201 -67.46484375 130.03125 C-69.56357345 132.91435342 -70.99328787 133.99751403 -74.375 135.25 C-79.58960545 134.89037204 -81.61781893 132.83867177 -85 129 C-88.11539239 125.07709791 -91.08971563 121.07835769 -94 117 C-94.47308594 117.36351562 -94.94617188 117.72703125 -95.43359375 118.1015625 C-97.60786701 119.75451878 -99.80352799 121.37668146 -102 123 C-102.99386719 123.77150391 -102.99386719 123.77150391 -104.0078125 124.55859375 C-116.9443279 134.02733601 -134.4215915 136.93393266 -150.10839844 134.69970703 C-168.33387479 131.32700573 -182.54494755 122.3287425 -193.4765625 107.37109375 C-203.55157797 91.69023634 -206.90078229 74.24833904 -203.30859375 55.8515625 C-201.30724077 48.26484368 -197.98518864 41.71788943 -194 35 C-193.32076805 33.67302367 -192.6492959 32.34187818 -192 31 C-194.7391815 27.513769 -197.24563485 24.76390023 -200.8125 22.125 C-202.80711324 20.46209487 -203.84000392 19.51017619 -204.62109375 17.01953125 C-204.86250944 13.12030208 -204.45797269 11.60237237 -202.02319336 8.39990234 C-197.88720336 5.11662836 -195.01346784 5.39724216 -189.89453125 5.57421875 C-188.08789377 5.58213384 -186.28125274 5.58927037 -184.47460938 5.59570312 C-181.64813034 5.63510594 -178.82274375 5.68725041 -175.99682617 5.75610352 C-163.31531819 6.44168333 -163.31531819 6.44168333 -152.2109375 1.27734375 C-150.79367418 -0.13490215 -149.38880758 -1.55976137 -148 -3 C-145.36872648 -4.88096978 -142.61236195 -6.50821631 -139.8125 -8.125 C-139.08691895 -8.54604004 -138.36133789 -8.96708008 -137.61376953 -9.40087891 C-94.1170914 -34.05183758 -39.80612752 -29.41426237 0 0 Z M-130 6 C-126.90491694 8.06338871 -124.56358627 8.7734403 -121 9.75 C-105.81226829 14.37527821 -93.51283627 23.47149822 -85.4609375 37.23828125 C-81.71178468 44.32558351 -78.63361367 51.12895233 -77 59 C-76.34 59 -75.68 59 -75 59 C-74.79246094 58.21238281 -74.58492187 57.42476563 -74.37109375 56.61328125 C-69.49323229 39.36728572 -60.61398557 24.69213336 -44.8984375 15.4609375 C-37.60379471 11.78412294 -29.90934684 9.02332128 -22 7 C-24.76813984 3.51065898 -28.68021478 2.18542149 -32.6875 0.5625 C-33.80958862 0.10399658 -33.80958862 0.10399658 -34.9543457 -0.36376953 C-42.47008935 -3.33978637 -50.08979869 -5.35241048 -58 -7 C-59.36511719 -7.28810547 -59.36511719 -7.28810547 -60.7578125 -7.58203125 C-84.60279785 -10.65602334 -109.28174061 -6.32470815 -130 6 Z M-176 23 C-175.68804687 23.76570313 -175.37609375 24.53140625 -175.0546875 25.3203125 C-173.851109 28.37829343 -173.13200268 30.69993308 -173 34 C-174.56233357 37.31214716 -176.34936282 40.08563788 -178.46484375 43.05859375 C-185.95545832 53.7513031 -188.99820588 64.53069527 -187.3125 77.5 C-184.77621418 91.71654944 -177.71453118 102.47018238 -166 111 C-162.43740056 113.00237401 -158.83046205 114.58364652 -155 116 C-154.34515625 116.24621094 -153.6903125 116.49242187 -153.015625 116.74609375 C-141.02928381 120.45981057 -128.29358927 117.97621727 -117.24609375 112.6796875 C-106.15777344 106.48377111 -98.14059082 97.12534587 -94.1875 85 C-90.56205082 71.12402487 -92.12050519 58.99194903 -98.953125 46.30078125 C-106.24897547 34.5355262 -115.7253123 27.76116614 -128.88916016 23.81591797 C-137.45262745 21.8316249 -146.58779096 22.59745251 -155.3125 22.75 C-157.32485192 22.77010568 -159.33722334 22.78834922 -161.34960938 22.8046875 C-166.23356277 22.84833756 -171.11656096 22.91713802 -176 23 Z M-47.8125 38.625 C-56.41772027 48.83406061 -60.56647395 61.07537647 -59.8046875 74.421875 C-57.91080972 89.09081928 -51.65397155 99.63535993 -40.45703125 109.2109375 C-36.28192848 112.25099643 -31.82611706 114.21549264 -27 116 C-26.34515625 116.24621094 -25.6903125 116.49242187 -25.015625 116.74609375 C-13.02928381 120.45981057 -0.29358927 117.97621727 10.75390625 112.6796875 C21.84222656 106.48377111 29.85940918 97.12534587 33.8125 85 C37.26536647 71.78456463 36.16545375 59.854157 29.66015625 47.72265625 C28.13056427 45.2141254 26.50345741 42.93104712 24.6875 40.625 C22.18652595 37.43954884 20.90894027 35.18874754 21 31 C22.4375 27.75 22.4375 27.75 24 25 C24 24.34 24 23.68 24 23 C18.11422513 22.90013043 12.22895785 22.82806453 6.3425293 22.78027344 C4.34569695 22.76032281 2.34892176 22.73315228 0.35229492 22.69824219 C-18.55007553 22.37633856 -33.93463632 24.35327374 -47.8125 38.625 Z M-77 82 C-77.33773437 83.09699219 -77.67546875 84.19398438 -78.0234375 85.32421875 C-78.47385102 86.77867907 -78.92437784 88.23310431 -79.375 89.6875 C-79.59671875 90.40873047 -79.8184375 91.12996094 -80.046875 91.87304688 C-80.26601562 92.57880859 -80.48515625 93.28457031 -80.7109375 94.01171875 C-81.00943604 94.97791138 -81.00943604 94.97791138 -81.31396484 95.96362305 C-82.11547966 98.34278143 -83.06760815 100.66902037 -84 103 C-81.36 106.3 -78.72 109.6 -76 113 C-74.68 111.35 -73.36 109.7 -72 108 C-71.154375 107.154375 -70.30875 106.30875 -69.4375 105.4375 C-67.64382675 102.15404142 -67.64382675 102.15404142 -68.79296875 99.23046875 C-69.69255426 97.13319462 -70.6340416 95.05347412 -71.61328125 92.9921875 C-73.29902488 89.35478012 -74.17323597 85.90833907 -75 82 C-75.66 82 -76.32 82 -77 82 Z " fill="#FFFFFF" transform="translate(204,73)"/>
<path d="M0 0 C7.30655897 6.15063851 11.3775391 11.98936191 12.375 21.62109375 C12.72939578 32.6184378 10.85452206 39.9171868 3.8125 48.375 C-2.67617002 55.19559868 -10.24419246 58.07675054 -19.5625 58.3125 C-28.90978289 58.19864759 -36.49793593 55.41719041 -43.28125 48.92578125 C-50.59158508 40.73488308 -52.50935551 32.62228447 -52.296875 21.75390625 C-51.54355503 12.22837344 -47.55274304 6.60882717 -40.6640625 0.13671875 C-28.75480247 -9.41513644 -11.97294564 -9.6304128 0 0 Z M-33.4375 16.875 C-35.92783667 21.85567335 -36.42463948 25.21587949 -34.9375 30.5625 C-33.23520621 35.21439041 -31.09169814 37.27220124 -27 40 C-21.97141801 41.676194 -17.65969589 41.60642735 -12.75 39.8125 C-7.73722364 36.50862467 -5.40836903 32.83900851 -4.1875 27.05078125 C-3.77050642 22.48991393 -5.35277895 19.0547306 -7.6875 15.25 C-11.28705133 11.74773384 -15.00231796 10.29752711 -19.9375 9.5625 C-25.63299314 10.37614188 -29.71187883 12.48067759 -33.4375 16.875 Z " fill="#FFFFFF" transform="translate(212,118)"/>
<path d="M0 0 C7.30655897 6.15063851 11.3775391 11.98936191 12.375 21.62109375 C12.72939578 32.6184378 10.85452206 39.9171868 3.8125 48.375 C-2.67617002 55.19559868 -10.24419246 58.07675054 -19.5625 58.3125 C-28.90978289 58.19864759 -36.49793593 55.41719041 -43.28125 48.92578125 C-50.59158508 40.73488308 -52.50935551 32.62228447 -52.296875 21.75390625 C-51.54355503 12.22837344 -47.55274304 6.60882717 -40.6640625 0.13671875 C-28.75480247 -9.41513644 -11.97294564 -9.6304128 0 0 Z M-33.4375 16.875 C-35.92783667 21.85567335 -36.42463948 25.21587949 -34.9375 30.5625 C-33.23520621 35.21439041 -31.09169814 37.27220124 -27 40 C-21.97141801 41.676194 -17.65969589 41.60642735 -12.75 39.8125 C-7.73722364 36.50862467 -5.40836903 32.83900851 -4.1875 27.05078125 C-3.77050642 22.48991393 -5.35277895 19.0547306 -7.6875 15.25 C-11.28705133 11.74773384 -15.00231796 10.29752711 -19.9375 9.5625 C-25.63299314 10.37614188 -29.71187883 12.48067759 -33.4375 16.875 Z " fill="#FFFFFF" transform="translate(84,118)"/>
<path d="M0 0 C2.64764845 1.67684402 2.95477045 2.85138861 3.875 5.875 C4.02524355 9.63108863 3.28344384 11.06414363 1 14 C-2 16 -2 16 -5.4375 15.875 C-9.33123193 14.91864479 -10.76861278 14.30245308 -13 11 C-13.48376933 7.12984535 -13.29551985 4.21372779 -11 1 C-7.4367155 -1.7714435 -4.20758349 -0.99451973 0 0 Z " fill="#FFFFFF" transform="translate(197,136)"/>
<path d="M0 0 C2.64764845 1.67684402 2.95477045 2.85138861 3.875 5.875 C4.02524355 9.63108863 3.28344384 11.06414363 1 14 C-2 16 -2 16 -5.4375 15.875 C-9.33123193 14.91864479 -10.76861278 14.30245308 -13 11 C-13.48376933 7.12984535 -13.29551985 4.21372779 -11 1 C-7.4367155 -1.7714435 -4.20758349 -0.99451973 0 0 Z " fill="#FFFFFF" transform="translate(69,136)"/>
</svg>
